<svg width="1060" height="1059" viewBox="0 0 1060 1059" fill="none" xmlns="http://www.w3.org/2000/svg">
<g clip-path="url(#clip0_23_2)">
<path d="M1009.04 0.848145H50.884C23.2698 0.848145 0.884033 23.2339 0.884033 50.8481V1009C0.884033 1036.61 23.2698 1059 50.884 1059H1009.04C1036.65 1059 1059.04 1036.61 1059.04 1009V50.8481C1059.04 23.2339 1036.65 0.848145 1009.04 0.848145Z" fill="url(#paint0_linear_23_2)"/>
<path d="M468.786 508.43C468.786 508.43 528.307 503.47 528.307 434.029C528.307 364.588 480.359 331.521 419.185 331.521H215.821V721.714H419.185C419.185 721.714 543.187 725.021 543.187 605.979C541.534 605.979 548.147 508.43 468.786 508.43ZM305.103 400.962H419.185C419.185 400.962 447.292 400.962 447.292 442.296C447.292 483.63 430.758 488.59 412.571 488.59H306.756V400.962H305.103ZM412.571 650.619H305.103V546.458H419.185C419.185 546.458 460.519 546.458 460.519 599.365C458.865 645.659 429.105 650.619 412.571 650.619Z" fill="#F1F2F2"/>
<path d="M784.578 354.667H624.202V402.615H784.578V354.667Z" fill="#F1F2F2"/>
<path d="M706.87 430.722C556.414 430.722 556.414 581.178 556.414 581.178C556.414 581.178 546.494 729.981 706.87 729.981C706.87 729.981 840.792 738.248 840.792 625.819H771.351C771.351 625.819 773.004 667.153 708.523 667.153C708.523 667.153 639.082 672.113 639.082 599.365H840.792C842.446 599.365 865.593 430.722 706.87 430.722ZM640.735 546.458C640.735 546.458 649.002 486.936 708.523 486.936C768.044 486.936 768.044 546.458 768.044 546.458H640.735Z" fill="#F1F2F2"/>
</g>
<defs>
<linearGradient id="paint0_linear_23_2" x1="41.1285" y1="1010.91" x2="1071.73" y2="-3.14969" gradientUnits="userSpaceOnUse">
<stop offset="0.2887" stop-color="#3F56FF"/>
<stop offset="1" stop-color="#3FA1FF"/>
</linearGradient>
<clipPath id="clip0_23_2">
<rect width="1058.15" height="1058.15" fill="white" transform="translate(0.884033 0.848145)"/>
</clipPath>
</defs>
</svg>
