<svg width="1574" height="1575" viewBox="0 0 1574 1575" fill="none" xmlns="http://www.w3.org/2000/svg">
<g clip-path="url(#clip0_6_84)">
<path d="M787.002 1542.76C1204.26 1542.76 1542.52 1204.51 1542.52 787.245C1542.52 369.984 1204.26 31.7275 787.002 31.7275C369.742 31.7275 31.4847 369.984 31.4847 787.245C31.4847 1204.51 369.742 1542.76 787.002 1542.76Z" fill="#EA4C89"/>
<path fill-rule="evenodd" clip-rule="evenodd" d="M787.002 0.248047C352.532 0.248047 0.00482178 352.776 0.00482178 787.246C0.00482178 1221.72 352.532 1574.24 787.002 1574.24C1220.62 1574.24 1574 1221.72 1574 787.246C1574 352.776 1220.62 0.248047 787.002 0.248047ZM1306.83 363.018C1400.72 477.397 1457.06 623.36 1458.77 781.271C1436.57 777.002 1214.64 731.764 991.008 759.93C985.886 748.835 981.617 736.884 976.497 724.934C962.84 692.499 947.474 659.209 932.111 627.627C1179.65 526.905 1292.32 381.797 1306.83 363.018ZM787.002 116.334C957.718 116.334 1113.92 180.352 1232.57 285.343C1220.62 302.414 1119.04 438.133 880.043 527.758C769.931 325.461 647.869 159.867 629.091 134.26C679.451 122.309 732.374 116.334 787.002 116.334ZM501.055 179.499C518.979 203.399 638.48 369.847 750.298 567.876C436.182 651.526 158.771 649.82 128.895 649.82C172.427 441.548 313.268 268.271 501.055 179.499ZM114.384 788.099C114.384 781.271 114.384 774.443 114.384 767.613C143.406 768.466 469.473 772.735 804.927 672.013C824.56 709.571 842.484 747.981 859.556 786.393C851.02 788.953 841.631 791.514 833.095 794.074C486.544 905.893 302.171 1211.47 286.807 1237.08C180.109 1118.43 114.384 960.522 114.384 788.099ZM787.002 1459.86C631.652 1459.86 488.25 1406.94 374.724 1318.17C386.676 1293.42 523.248 1030.51 902.235 898.211C903.942 897.358 904.795 897.358 906.503 896.503C1001.25 1141.48 1039.66 1347.19 1049.9 1406.09C968.815 1441.08 880.043 1459.86 787.002 1459.86ZM1161.72 1344.63C1154.89 1303.66 1119.04 1107.34 1031.13 865.775C1241.96 832.485 1426.33 887.114 1449.38 894.797C1420.36 1081.73 1312.8 1243.06 1161.72 1344.63Z" fill="#C32361"/>
</g>
<defs>
<clipPath id="clip0_6_84">
<rect width="1574" height="1574" fill="white" transform="translate(0.00482178 0.248047)"/>
</clipPath>
</defs>
</svg>
