<svg width="1506" height="1469" viewBox="0 0 1506 1469" fill="none" xmlns="http://www.w3.org/2000/svg">
<path d="M753.006 0C337.187 0 0 337.124 0 753.006C0 1085.7 215.759 1367.96 514.952 1467.53C552.584 1474.5 566.401 1451.2 566.401 1431.31C566.401 1413.35 565.702 1354.03 565.378 1291.11C355.891 1336.66 311.687 1202.27 311.687 1202.27C277.433 1115.23 228.079 1092.09 228.079 1092.09C159.759 1045.35 233.229 1046.31 233.229 1046.31C308.844 1051.62 348.659 1123.91 348.659 1123.91C415.819 1239.03 524.815 1205.75 567.785 1186.51C574.543 1137.84 594.058 1104.62 615.593 1085.82C448.34 1066.78 272.52 1002.21 272.52 713.677C272.52 631.466 301.936 564.293 350.105 511.56C342.287 492.594 316.513 416.006 357.4 312.285C357.4 312.285 420.633 292.047 564.53 389.471C624.596 372.787 689.013 364.42 753.006 364.133C817 364.42 881.467 372.787 941.644 389.471C1085.37 292.047 1148.51 312.285 1148.51 312.285C1189.5 416.006 1163.71 492.594 1155.89 511.56C1204.18 564.293 1233.39 631.466 1233.39 713.677C1233.39 1002.89 1057.24 1066.58 889.559 1085.22C916.568 1108.59 940.634 1154.41 940.634 1224.66C940.634 1325.42 939.761 1406.51 939.761 1431.31C939.761 1451.35 953.316 1474.83 991.485 1467.43C1290.52 1367.75 1506 1085.59 1506 753.006C1506 337.124 1168.86 0 753.006 0ZM282.025 1072.67C280.367 1076.41 274.481 1077.54 269.119 1074.97C263.658 1072.51 260.59 1067.41 262.361 1063.66C263.982 1059.8 269.88 1058.73 275.329 1061.31C280.803 1063.77 283.921 1068.92 282.025 1072.67ZM319.065 1105.72C315.474 1109.05 308.453 1107.51 303.69 1102.24C298.765 1096.99 297.842 1089.97 301.483 1086.59C305.186 1083.27 311.995 1084.82 316.933 1090.07C321.858 1095.39 322.818 1102.36 319.065 1105.72ZM344.475 1148.01C339.862 1151.21 332.318 1148.21 327.654 1141.51C323.04 1134.82 323.04 1126.79 327.754 1123.57C332.43 1120.35 339.862 1123.24 344.588 1129.89C349.189 1136.7 349.189 1144.73 344.475 1148.01ZM387.45 1196.98C383.323 1201.53 374.532 1200.31 368.097 1194.1C361.514 1188.03 359.681 1179.41 363.82 1174.86C367.998 1170.3 376.839 1171.58 383.323 1177.74C389.857 1183.8 391.852 1192.48 387.45 1196.98ZM442.991 1213.52C441.17 1219.41 432.703 1222.09 424.174 1219.59C415.658 1217.01 410.084 1210.1 411.804 1204.14C413.575 1198.2 422.079 1195.41 430.671 1198.09C439.175 1200.66 444.761 1207.52 442.991 1213.52ZM506.198 1220.53C506.41 1226.74 499.178 1231.89 490.225 1232C481.222 1232.2 473.94 1227.17 473.84 1221.06C473.84 1214.79 480.91 1209.69 489.913 1209.54C498.866 1209.37 506.198 1214.36 506.198 1220.53ZM568.292 1218.15C569.365 1224.21 563.142 1230.43 554.252 1232.09C545.511 1233.69 537.418 1229.94 536.308 1223.93C535.223 1217.72 541.558 1211.5 550.286 1209.89C559.19 1208.35 567.158 1211.99 568.292 1218.15Z" fill="#161614"/>
</svg>
