<svg width="617" height="617" viewBox="0 0 617 617" fill="none" xmlns="http://www.w3.org/2000/svg">
<path d="M579.121 314.615C579.121 294.592 577.325 275.34 573.987 256.857H308.043V366.084H460.011C453.465 401.381 433.571 431.287 403.665 451.309V522.159H494.923C548.317 473.001 579.121 400.611 579.121 314.615V314.615Z" fill="#4285F4"/>
<path d="M308.043 590.571C384.284 590.571 448.203 565.285 494.923 522.159L403.665 451.309C378.38 468.252 346.035 478.263 308.043 478.263C234.498 478.263 172.248 428.591 150.043 361.849H55.7045V435.009C102.168 527.293 197.661 590.571 308.043 590.571Z" fill="#34A853"/>
<path d="M150.043 361.849C144.395 344.906 141.187 326.809 141.187 308.198C141.187 289.587 144.395 271.489 150.043 254.547V181.386H55.7045C35.9384 220.735 25.6529 264.163 25.6703 308.198C25.6703 353.762 36.5802 396.888 55.7045 435.009L150.043 361.849V361.849Z" fill="#FBBC05"/>
<path d="M308.043 138.132C349.501 138.132 386.723 152.379 415.987 180.36L496.977 99.37C448.075 53.8052 384.156 25.8246 308.043 25.8246C197.661 25.8246 102.168 89.1019 55.7045 181.387L150.043 254.547C172.248 187.804 234.498 138.132 308.043 138.132Z" fill="#EA4335"/>
</svg>
