<svg width="1043" height="1045" viewBox="0 0 1043 1045" fill="none" xmlns="http://www.w3.org/2000/svg">
<path d="M568.854 0H636.361L680.465 0.900086L716.469 1.80017L735.37 2.70026C791.176 5.40052 828.979 14.4014 861.382 27.0026C895.586 40.5039 924.388 58.5056 954.091 87.3084C982.894 116.111 1000.9 145.814 1014.4 180.017C1026.1 209.72 1034.2 243.023 1037.8 288.928L1040.5 338.432L1041.4 385.237L1042.3 474.345V641.761L1041.4 693.966L1039.6 737.171C1036.9 792.976 1027.9 830.779 1015.3 864.083C1001.8 898.286 983.794 927.089 954.991 956.792C926.189 985.594 897.386 1003.6 862.283 1017.1C832.58 1028.8 799.276 1036.9 753.372 1040.5L697.567 1043.2L648.062 1044.1L567.954 1045H400.538L348.333 1044.1L305.129 1042.3C249.324 1039.6 211.52 1030.6 179.117 1018C144.914 1004.5 116.111 986.494 86.4083 957.692C57.6055 928.889 39.6038 899.186 26.1025 864.983C14.4014 835.28 6.3006 801.977 2.70026 756.072L0.900086 719.169L0 683.165L0 636.361V553.553V405.039L0.900086 360.935L1.80017 324.931L2.70026 306.029C5.40052 251.124 14.4014 213.32 27.0026 180.017C40.5039 145.814 58.5056 117.011 87.3084 87.3084C116.111 58.5056 145.814 40.5039 180.017 27.0026C209.72 15.3015 243.023 7.20069 288.928 3.60034L325.831 1.80017L361.835 0.900086L405.039 0H472.545C473.445 0 568.854 0 568.854 0ZM634.561 94.509H406.839L367.235 95.4091L309.63 97.2093C295.228 98.1094 280.827 99.0095 266.425 100.81L258.325 101.71C252.924 102.61 246.624 103.51 241.223 105.31L234.922 107.11C233.122 108.01 231.322 108.01 229.522 108.91L217.821 112.511L212.42 114.311C188.118 124.212 171.016 135.013 152.115 153.015C134.113 171.016 122.412 189.018 113.411 213.32L110.711 225.022L108.91 230.422C104.41 245.724 99.9096 267.326 97.2093 297.028L96.3092 319.531L94.509 366.335L93.609 446.443V631.86L94.509 689.466L96.3092 731.77C97.2093 747.072 98.1094 762.373 100.81 777.674L101.71 784.875C101.71 785.775 101.71 787.575 102.61 788.475L104.41 794.776L106.21 801.077C106.21 801.977 107.11 802.877 107.11 803.777L108.91 809.177L110.711 814.578L111.611 817.278L115.211 828.079C124.212 852.382 135.913 869.483 153.915 888.385C171.916 906.387 189.918 918.088 214.22 927.089L225.022 930.689L229.522 932.489L232.222 933.389L237.623 935.189C238.523 935.189 239.423 936.09 240.323 936.09L246.624 937.89L252.924 939.69L260.125 940.59C273.626 943.29 289.828 945.09 309.63 945.99L373.536 948.691L458.144 949.591H641.761L688.566 948.691L730.87 946.891C750.672 945.99 766.873 944.19 780.375 941.49L787.575 940.59L793.876 938.79L801.077 936.09L803.777 935.189L809.177 933.389L814.578 931.589L817.278 930.689L828.079 927.089C852.382 918.088 869.483 906.387 888.385 888.385C906.387 870.383 918.088 852.382 927.089 828.079L930.689 817.278C936.09 801.077 941.49 778.574 944.19 744.371L946.891 689.466L947.791 633.661V553.553V408.639L946.891 352.834L945.09 310.53C944.19 297.929 943.29 284.427 941.49 271.826L940.59 263.725C939.69 260.125 939.69 256.525 938.79 252.924L936.99 246.624C936.09 244.823 936.09 242.123 935.189 240.323L933.389 234.922L932.489 232.222L927.989 217.821L927.089 215.121C917.188 190.818 906.387 173.717 888.385 154.815C870.383 135.913 852.382 125.112 828.079 116.111L822.679 114.311L810.978 110.711L808.277 108.01L801.077 106.21C786.675 102.61 768.674 99.0095 744.371 97.2093L705.668 95.4091L674.165 94.509H634.561Z" fill="url(#paint0_linear_5_57)"/>
<path d="M521.15 253.824C668.764 253.824 788.475 373.536 788.475 521.15C788.475 668.764 668.764 788.475 521.15 788.475C373.536 788.475 253.824 668.764 253.824 521.15C253.824 373.536 373.536 253.824 521.15 253.824ZM521.15 347.433C424.841 347.433 347.433 424.84 347.433 521.15C347.433 617.459 424.841 694.866 521.15 694.866C617.459 694.866 694.867 617.459 694.867 521.15C694.867 424.84 616.559 347.433 521.15 347.433ZM861.382 243.023C862.283 277.226 835.28 306.029 801.077 306.929C766.873 307.829 738.071 280.827 737.171 246.623C737.171 245.723 737.171 243.923 737.171 243.023C738.071 208.82 766.873 180.917 801.077 182.717C834.38 182.717 860.482 209.72 861.382 243.023Z" fill="url(#paint1_linear_5_57)"/>
<defs>
<linearGradient id="paint0_linear_5_57" x1="210.573" y1="1048" x2="824.934" y2="5.89708" gradientUnits="userSpaceOnUse">
<stop stop-color="#FDD074"/>
<stop offset="0.25" stop-color="#F77F34"/>
<stop offset="0.5" stop-color="#DD326E"/>
<stop offset="0.75" stop-color="#D82B7E"/>
<stop offset="1" stop-color="#A432B1"/>
</linearGradient>
<linearGradient id="paint1_linear_5_57" x1="364.871" y1="785.381" x2="721.915" y2="178.008" gradientUnits="userSpaceOnUse">
<stop stop-color="#FDD074"/>
<stop offset="0.25" stop-color="#F77F34"/>
<stop offset="0.5" stop-color="#DD326E"/>
<stop offset="0.75" stop-color="#D82B7E"/>
<stop offset="1" stop-color="#A432B1"/>
</linearGradient>
</defs>
</svg>
